<svg enable-background="new 0 0 223.8 223.8" version="1.1" viewBox="0 0 223.8 223.8" xmlns="http://www.w3.org/2000/svg" xmlns:xlink="http://www.w3.org/1999/xlink">
<defs>
<linearGradient id="paint_linear_8_" x1="179.9" x2="159.8" y1="187.3" y2="152.4" gradientUnits="userSpaceOnUse">
<stop stop-color="#CCBCE1" offset="0"/>
<stop stop-color="#E6E2F1" offset="1"/>
</linearGradient>
<linearGradient id="paint_linear_7_" x1="122" x2="101.8" y1="187.3" y2="152.4" gradientUnits="userSpaceOnUse">
<stop stop-color="#CCBCE1" offset="0"/>
<stop stop-color="#E6E2F1" offset="1"/>
</linearGradient>
<linearGradient id="paint_linear_6_" x1="64" x2="43.9" y1="187.3" y2="152.4" gradientUnits="userSpaceOnUse">
<stop stop-color="#CCBCE1" offset="0"/>
<stop stop-color="#E6E2F1" offset="1"/>
</linearGradient>
<linearGradient id="paint_linear_1_" x1="186.4" x2="37.4" y1="240.9" y2="-17.1" gradientUnits="userSpaceOnUse">
<stop stop-color="#e6e2f1" offset="0"/>
<stop stop-color="#e0dbe8" offset="1"/>
</linearGradient>
<filter id="filter6_i_18_20236" x="7.1937" y="9.6406" width="15.041" height="11.9" color-interpolation-filters="sRGB" filterUnits="userSpaceOnUse">
<feFlood flood-opacity="0" result="BackgroundImageFix"/>
<feBlend in="SourceGraphic" in2="BackgroundImageFix" result="shape"/>
<feColorMatrix in="SourceAlpha" result="hardAlpha" values="0 0 0 0 0 0 0 0 0 0 0 0 0 0 0 0 0 0 127 0"/>
<feOffset dx="-0.4" dy="0.4"/>
<feGaussianBlur stdDeviation="0.375"/>
<feComposite in2="hardAlpha" k2="-1" k3="1" operator="arithmetic"/>
<feColorMatrix values="0 0 0 0 0.143 0 0 0 0 0.143 0 0 0 0 0.143 0 0 0 1 0"/>
<feBlend in2="shape" result="effect1_innerShadow_18_20236"/>
</filter>
<linearGradient id="paint7_linear_18_20236" x1="18.5" x2="11.675" y1="12.797" y2="20.035" gradientUnits="userSpaceOnUse">
<stop stop-color="#2c2c32" offset="0"/>
<stop stop-color="#25252b" offset="1"/>
</linearGradient>
<linearGradient id="linearGradient3483" x1="84" x2="144" y1="83.9" y2="83.9" gradientTransform="translate(-5e-4)" gradientUnits="userSpaceOnUse">
<stop stop-color="#009a7c" offset="0"/>
<stop stop-color="#009688" offset=".8"/>
<stop stop-color="#00bfa5" offset=".8"/>
<stop stop-color="#00bfa5" offset="1"/>
</linearGradient>
</defs>
<path d="M213.1 223.8H10.7C4.8 223.8 0 219 0 213.1V10.7C0 4.8 4.8 0 10.7 0h202.5c5.9 0 10.7 4.8 10.7 10.7v202.5a10.8 10.8 0 0 1-10.8 10.6z" fill="url(#paint_linear_1_)"/>
<path d="M16 16h191.8v191.8H16z" fill="#666"/>
<path class="st3" d="m180.5 132.9h-137.2a5.3 5.3 0 0 1-5.3-5.3v-85.3c0-2.9 2.4-5.3 5.3-5.3h137.3c2.9 0 5.3 2.4 5.3 5.3v85.3a5.4 5.4 0 0 1-5.4 5.3z" opacity=".32"/>
<path class="st3" d="m180.5 132.9h-137.2a5.3 5.3 0 0 1-5.3-5.3v-85.3c0-2.9 2.4-5.3 5.3-5.3h137.3c2.9 0 5.3 2.4 5.3 5.3v85.3a5.4 5.4 0 0 1-5.4 5.3z" opacity=".24"/>
<path transform="matrix(10.081,0,0,8.3356,-38.492,-43.344)" d="m8.0938 9.6406h13.641c0.277 0 0.5 0.223 0.5 0.5v10.5c0 0.277-0.223 0.5-0.5 0.5h-13.641c-0.277 0-0.5-0.223-0.5-0.5v-10.5c0-0.277 0.223-0.5 0.5-0.5z" fill="url(#paint7_linear_18_20236)" filter="url(#filter6_i_18_20236)"/>
<path d="M65.3 185.8H42.6a4.7 4.7 0 0 1-4.7-4.7v-22.6c0-2.6 2.1-4.7 4.7-4.7h22.6c2.6 0 4.7 2.1 4.7 4.7v22.6c0 2.7-2 4.7-4.6 4.7z" fill="url(#paint_linear_6_)"/>
<path d="m123.2 185.8h-22.6a4.7 4.7 0 0 1-4.7-4.7v-22.6c0-2.6 2.1-4.7 4.7-4.7h22.6c2.6 0 4.7 2.1 4.7 4.7v22.6c0 2.7-2.1 4.7-4.7 4.7z" fill="url(#paint_linear_7_)"/>
<path d="m181.2 185.8h-22.6a4.7 4.7 0 0 1-4.7-4.7v-22.6c0-2.6 2.1-4.7 4.7-4.7h22.6c2.6 0 4.7 2.1 4.7 4.7v22.6a4.7 4.7 0 0 1-4.7 4.7z" fill="url(#paint_linear_8_)"/>
<path d="m132 54-27 24.02-15-12.77-6 5.21 15 13.34-15 13.34 6.0995 5.61 14.9-12.75 27 24 12-7.5v-45zm0 15v30l-21-15.2z" fill="url(#linearGradient3483)"/>
</svg>
